<svg width="217" height="33" viewBox="0 0 217 33" fill="none" xmlns="http://www.w3.org/2000/svg">
<path d="M38.4257 9.52905L41.8768 18.2117L45.2756 9.52905H50.0259L43.7618 24.6092H39.9918L33.6465 9.52905H38.4257Z" fill="#3399FF"/>
<path d="M49.6045 24.6097L55.9788 9.52954H59.6444L65.9897 24.6097H61.2104L60.2534 21.9011H55.3698L54.4127 24.6097H49.6045ZM57.8058 14.97L56.7502 17.9686H58.8672L57.8058 14.97Z" fill="#3399FF"/>
<path d="M67.124 16.9362C67.124 16.014 67.3096 15.1092 67.6808 14.216C68.052 13.3228 68.5856 12.5166 69.2874 11.7974C69.9893 11.0782 70.8419 10.5098 71.8511 10.0864C72.8603 9.66297 74.0087 9.44836 75.3021 9.44836C76.8217 9.44836 78.1499 9.74997 79.2867 10.3532C80.4178 10.9564 81.253 11.751 81.7808 12.7428L78.3297 15.2136C78.0455 14.5234 77.5931 14.0594 76.9783 13.8216C76.3577 13.5838 75.7719 13.462 75.2267 13.462C74.6235 13.462 74.1015 13.5664 73.6607 13.781C73.2199 13.9956 72.8545 14.274 72.5703 14.6162C72.2861 14.9642 72.0715 15.3528 71.9323 15.782C71.7873 16.217 71.7177 16.6462 71.7177 17.0696C71.7177 17.5452 71.7989 18.0093 71.9555 18.4501C72.1121 18.8909 72.3499 19.2853 72.6573 19.6333C72.9647 19.9755 73.3417 20.2481 73.7883 20.4453C74.2291 20.6425 74.7279 20.7353 75.2731 20.7353C75.6443 20.7353 76.0271 20.6773 76.4273 20.5613C76.8275 20.4453 77.1929 20.2655 77.5293 20.0161C77.8657 19.7667 78.1151 19.4303 78.2717 19.0069L81.9606 21.2341C81.6416 21.9765 81.1138 22.6087 80.383 23.1307C79.6463 23.6527 78.8227 24.0529 77.9005 24.3255C76.9783 24.5981 76.0677 24.7373 75.1687 24.7373C73.9855 24.7373 72.9009 24.5169 71.9149 24.0761C70.9289 23.6353 70.0821 23.0379 69.3686 22.2955C68.6494 21.5531 68.0984 20.7179 67.7098 19.7841C67.3212 18.8503 67.124 17.9106 67.124 16.9362Z" fill="#3399FF"/>
<path d="M83.6367 16.9362C83.6367 16.014 83.8223 15.1092 84.1935 14.216C84.5647 13.3228 85.0983 12.5166 85.8001 11.7974C86.502 11.0782 87.3546 10.5098 88.3638 10.0864C89.373 9.66297 90.5214 9.44836 91.8148 9.44836C93.3344 9.44836 94.6626 9.74997 95.7994 10.3532C96.9305 10.9564 97.7657 11.751 98.2935 12.7428L94.8424 15.2136C94.5582 14.5234 94.1058 14.0594 93.491 13.8216C92.8704 13.5838 92.2846 13.462 91.7394 13.462C91.1362 13.462 90.6142 13.5664 90.1734 13.781C89.7326 13.9956 89.3672 14.274 89.083 14.6162C88.7988 14.9642 88.5842 15.3528 88.445 15.782C88.3 16.217 88.2304 16.6462 88.2304 17.0696C88.2304 17.5452 88.3116 18.0093 88.4682 18.4501C88.6248 18.8909 88.8626 19.2853 89.17 19.6333C89.4774 19.9755 89.8544 20.2481 90.301 20.4453C90.7418 20.6425 91.2406 20.7353 91.7858 20.7353C92.157 20.7353 92.5398 20.6773 92.94 20.5613C93.3402 20.4453 93.7056 20.2655 94.042 20.0161C94.3784 19.7667 94.6278 19.4303 94.7844 19.0069L98.4733 21.2341C98.1543 21.9765 97.6265 22.6087 96.8957 23.1307C96.159 23.6527 95.3354 24.0529 94.4132 24.3255C93.491 24.5981 92.5804 24.7373 91.6814 24.7373C90.4982 24.7373 89.4136 24.5169 88.4276 24.0761C87.4416 23.6353 86.5948 23.0379 85.8813 22.2955C85.1621 21.5531 84.6111 20.7179 84.2225 19.7841C83.8339 18.8503 83.6367 17.9106 83.6367 16.9362Z" fill="#3399FF"/>
<path d="M101.53 24.6097V9.52954H106.043V24.6097H101.53Z" fill="#3399FF"/>
<path d="M114.778 17.8932V24.6097H110.266V9.52954H113.798L120.804 16.4838V9.52954H125.317V24.6097H121.732L114.778 17.8932Z" fill="#3399FF"/>
<path d="M127.839 24.6097L134.213 9.52954H137.879L144.224 24.6097H139.445L138.488 21.9011H133.604L132.647 24.6097H127.839ZM136.04 14.97L134.985 17.9686H137.102L136.04 14.97Z" fill="#3399FF"/>
<path d="M158.528 13.4562H153.615V24.6039H149.074V13.4562H144.138V9.52954H158.528V13.4562Z" fill="#3399FF"/>
<path d="M173.66 20.6772V24.6038H161.607V9.52368H173.445V13.4503H166.12V15.0975H172.384V18.7632H166.12V20.6772H173.66Z" fill="#3399FF"/>
<path d="M190.174 24.7431C188.968 24.7431 187.871 24.5285 186.88 24.0935C185.888 23.6584 185.035 23.0784 184.316 22.3534C183.597 21.6284 183.046 20.8048 182.657 19.8826C182.268 18.9604 182.071 18.015 182.071 17.0406C182.071 16.0488 182.274 15.0976 182.68 14.187C183.086 13.2763 183.661 12.4643 184.391 11.7567C185.122 11.0491 185.986 10.4865 186.978 10.0689C187.97 9.65131 189.055 9.4425 190.244 9.4425C191.467 9.4425 192.569 9.65711 193.561 10.0921C194.553 10.5271 195.4 11.1071 196.107 11.8437C196.815 12.5803 197.36 13.4039 197.737 14.3262C198.12 15.2484 198.306 16.1822 198.306 17.1392C198.306 18.1136 198.108 19.0532 197.708 19.9696C197.308 20.8802 196.745 21.698 196.02 22.4114C195.295 23.1306 194.437 23.6932 193.445 24.1109C192.471 24.5343 191.375 24.7431 190.174 24.7431ZM186.671 17.0986C186.671 17.5568 186.746 18.0034 186.897 18.4384C187.048 18.8734 187.268 19.262 187.558 19.6042C187.848 19.9464 188.219 20.2248 188.66 20.4278C189.101 20.6308 189.623 20.7352 190.226 20.7352C190.829 20.7352 191.351 20.6308 191.792 20.4162C192.233 20.2016 192.598 19.9232 192.883 19.5694C193.167 19.2156 193.376 18.8154 193.521 18.3746C193.66 17.9338 193.735 17.4872 193.735 17.0464C193.735 16.5882 193.66 16.1416 193.509 15.7066C193.358 15.2716 193.138 14.8888 192.848 14.5524C192.558 14.216 192.187 13.9492 191.746 13.7577C191.305 13.5663 190.789 13.4677 190.209 13.4677C189.606 13.4677 189.084 13.5721 188.643 13.7751C188.202 13.9782 187.831 14.2566 187.541 14.6104C187.251 14.9642 187.03 15.3528 186.891 15.7762C186.74 16.1938 186.671 16.6346 186.671 17.0986Z" fill="#FF3300"/>
<path d="M216.002 9.52954V24.6097H211.489V18.8734H205.596V24.6097H201.084V9.52954H205.596V14.9178H211.489V9.52954H216.002Z" fill="#FF3300"/>
<path d="M17.4291 12.7485C17.1333 12.5571 16.8317 12.3773 16.5127 12.2091L11.9829 21.0368L11.3855 22.1968L6.26401 12.2149C2.76658 14.0593 0.376953 17.7308 0.376953 21.9648C0.376953 28.0491 5.3128 32.9849 11.3971 32.9849C17.4813 32.9849 22.4172 28.0491 22.4172 21.9648C22.4172 18.1078 20.4336 14.7205 17.4291 12.7485Z" fill="#FF3300"/>
<path d="M1.18901 0H0L6.26406 12.2149L11.3855 22.1968L11.9829 21.0368L16.5186 12.2091L22.7942 0H1.18901ZM14.883 6.89047L13.4271 8.39849C13.3691 8.46229 13.3401 8.54929 13.3517 8.64209L13.6939 10.7707C13.7287 10.9911 13.5083 11.1651 13.3227 11.0549L11.5247 10.0515C11.4493 10.0109 11.3623 10.0109 11.2869 10.0515L9.4889 11.0549C9.3033 11.1593 9.08289 10.9911 9.11769 10.7707L9.4599 8.64209C9.4715 8.55509 9.4483 8.46229 9.3845 8.39849L7.92868 6.89047C7.77788 6.73387 7.85908 6.46127 8.06788 6.42647L10.0805 6.11326C10.1617 6.10166 10.2371 6.04366 10.2719 5.96246L11.1709 4.02524C11.2637 3.82224 11.5363 3.82224 11.6291 4.02524L12.5281 5.96246C12.5629 6.04366 12.6383 6.09586 12.7195 6.11326L14.7322 6.42647C14.9526 6.46127 15.0338 6.73387 14.883 6.89047Z" fill="#3399FF"/>
</svg>
