<svg width="19" height="19" viewBox="0 0 19 19" fill="none" xmlns="http://www.w3.org/2000/svg">
<path d="M15.8333 12.2708C14.8438 12.2708 13.8938 12.1125 13.0071 11.8196C12.73 11.7325 12.4213 11.7958 12.1996 12.0096L10.4579 13.7513C8.2175 12.6113 6.38083 10.7825 5.24083 8.53417L6.9825 6.78458C7.20417 6.57875 7.2675 6.27 7.18042 5.99292C6.8875 5.10625 6.72917 4.15625 6.72917 3.16667C6.72917 2.73125 6.37292 2.375 5.9375 2.375H3.16667C2.73125 2.375 2.375 2.73125 2.375 3.16667C2.375 10.6004 8.39958 16.625 15.8333 16.625C16.2688 16.625 16.625 16.2688 16.625 15.8333V13.0625C16.625 12.6271 16.2688 12.2708 15.8333 12.2708ZM15.0417 9.5H16.625C16.625 5.56542 13.4346 2.375 9.5 2.375V3.95833C12.5638 3.95833 15.0417 6.43625 15.0417 9.5ZM11.875 9.5H13.4583C13.4583 7.315 11.685 5.54167 9.5 5.54167V7.125C10.8142 7.125 11.875 8.18583 11.875 9.5Z" fill="black"/>
</svg>